# xmcd CD database file
#
# Track frame offsets:
#	150
#	16412
#	30895
#	50270
#	69122
#	84237
#	98350
#	111607
#	128862
#	141182
#	156500
#	175175
#
# Disc length: 2549 seconds
#
# Revision: 0
# Processed by: cddbd v1.4PL0 Copyright (c) Steve Scherf et al.
# Submitted via: Feurio! 1.63 - http://www.feurio.com
#
DISCID=8f09f30c
DTITLE=Alan Rhody - Dreamer's World
DYEAR=1992
DGENRE=Country
TTITLE0=Kiss Kathy Goodnight
TTITLE1=Movin' Fast, Missin' You
TTITLE2=To Close To Home
TTITLE3=To The Captain
TTITLE4=Weather The Storm
TTITLE5=Change You Mind
TTITLE6=New Maria
TTITLE7=If He Ever Breaks Your Heart
TTITLE8=Drivin' With The Brakes On
TTITLE9=Dreamer's World
TTITLE10=Whit Roofs, Grey Streets
TTITLE11=Head-On Into The Truth
EXTD=
EXTT0=
EXTT1=
EXTT2=
EXTT3=
EXTT4=
EXTT5=
EXTT6=
EXTT7=
EXTT8=
EXTT9=
EXTT10=
EXTT11=
PLAYORDER=
